<svg 
 xmlns="http://www.w3.org/2000/svg"
 xmlns:xlink="http://www.w3.org/1999/xlink"
 width="54px" height="54px">
<path fill-rule="evenodd"  fill="rgb(225, 237, 255)"
 d="M6.000,-0.000 L48.000,-0.000 C51.314,-0.000 54.000,2.686 54.000,6.000 L54.000,48.000 C54.000,51.314 51.314,54.000 48.000,54.000 L6.000,54.000 C2.686,54.000 -0.000,51.314 -0.000,48.000 L-0.000,6.000 C-0.000,2.686 2.686,-0.000 6.000,-0.000 Z"/>
<path fill-rule="evenodd"  fill="rgb(15, 94, 247)"
 d="M15.000,13.000 L25.000,13.000 C26.104,13.000 27.000,13.895 27.000,15.000 L27.000,40.000 C27.000,41.105 26.104,42.000 25.000,42.000 L15.000,42.000 C13.895,42.000 13.000,41.105 13.000,40.000 L13.000,15.000 C13.000,13.895 13.895,13.000 15.000,13.000 Z"/>
<path fill-rule="evenodd"  fill="rgb(86, 201, 255)"
 d="M29.920,29.000 L39.920,29.000 C41.024,29.000 41.920,29.895 41.920,31.000 L41.920,40.000 C41.920,41.105 41.024,42.000 39.920,42.000 L29.920,42.000 C28.815,42.000 27.920,41.105 27.920,40.000 L27.920,31.000 C27.920,29.895 28.815,29.000 29.920,29.000 Z"/>
<path fill-rule="evenodd"  fill="rgb(20, 147, 255)"
 d="M34.920,13.360 C38.786,13.360 41.920,16.495 41.920,20.361 C41.920,24.228 38.786,27.363 34.920,27.363 C31.054,27.363 27.920,24.228 27.920,20.361 C27.920,16.495 31.054,13.360 34.920,13.360 Z"/>
</svg>
