<svg 
 xmlns="http://www.w3.org/2000/svg"
 xmlns:xlink="http://www.w3.org/1999/xlink"
 width="22.75px" height="22.75px">
<path fill-rule="evenodd"  stroke="rgb(108, 120, 151)" stroke-width="1.5px" stroke-linecap="butt" stroke-linejoin="miter" fill="rgb(108, 120, 151)"
 d="M11.000,7.000 C13.209,7.000 15.000,8.791 15.000,11.000 C15.000,13.209 13.209,15.000 11.000,15.000 C8.791,15.000 7.000,13.209 7.000,11.000 C7.000,8.791 8.791,7.000 11.000,7.000 Z"/>
<path fill-rule="evenodd"  fill="rgb(108, 120, 151)"
 d="M11.000,-0.000 C11.552,-0.000 12.000,0.448 12.000,1.000 L12.000,3.000 C12.000,3.552 11.552,4.000 11.000,4.000 C10.448,4.000 10.000,3.552 10.000,3.000 L10.000,1.000 C10.000,0.448 10.448,-0.000 11.000,-0.000 Z"/>
<path fill-rule="evenodd"  fill="rgb(108, 120, 151)"
 d="M11.000,18.000 C11.552,18.000 12.000,18.448 12.000,19.000 L12.000,21.000 C12.000,21.552 11.552,22.000 11.000,22.000 C10.448,22.000 10.000,21.552 10.000,21.000 L10.000,19.000 C10.000,18.448 10.448,18.000 11.000,18.000 Z"/>
<path fill-rule="evenodd"  fill="rgb(108, 120, 151)"
 d="M19.000,10.000 L21.000,10.000 C21.552,10.000 22.000,10.448 22.000,11.000 C22.000,11.552 21.552,12.000 21.000,12.000 L19.000,12.000 C18.448,12.000 18.000,11.552 18.000,11.000 C18.000,10.448 18.448,10.000 19.000,10.000 Z"/>
<path fill-rule="evenodd"  fill="rgb(108, 120, 151)"
 d="M1.000,10.000 L3.000,10.000 C3.552,10.000 4.000,10.448 4.000,11.000 C4.000,11.552 3.552,12.000 3.000,12.000 L1.000,12.000 C0.448,12.000 -0.000,11.552 -0.000,11.000 C-0.000,10.448 0.448,10.000 1.000,10.000 Z"/>
<path fill-rule="evenodd"  fill="rgb(108, 120, 151)"
 d="M17.364,15.950 L18.778,17.364 C19.169,17.754 19.169,18.388 18.778,18.778 C18.388,19.169 17.754,19.169 17.364,18.778 L15.950,17.364 C15.559,16.973 15.559,16.340 15.950,15.950 C16.340,15.559 16.973,15.559 17.364,15.950 Z"/>
<path fill-rule="evenodd"  fill="rgb(108, 120, 151)"
 d="M4.636,3.222 L6.050,4.636 C6.441,5.027 6.441,5.660 6.050,6.050 C5.660,6.441 5.027,6.441 4.636,6.050 L3.222,4.636 C2.831,4.246 2.831,3.612 3.222,3.222 C3.612,2.831 4.246,2.831 4.636,3.222 Z"/>
<path fill-rule="evenodd"  fill="rgb(108, 120, 151)"
 d="M6.089,17.315 L4.685,18.718 C4.298,19.105 3.670,19.105 3.282,18.718 C2.895,18.330 2.895,17.702 3.282,17.315 L4.685,15.911 C5.073,15.524 5.701,15.524 6.089,15.911 C6.476,16.299 6.476,16.927 6.089,17.315 Z"/>
<path fill-rule="evenodd"  fill="rgb(108, 120, 151)"
 d="M18.718,4.685 L17.315,6.089 C16.927,6.476 16.299,6.476 15.911,6.089 C15.524,5.701 15.524,5.073 15.911,4.685 L17.315,3.282 C17.702,2.895 18.330,2.895 18.718,3.282 C19.105,3.670 19.105,4.298 18.718,4.685 Z"/>
</svg>
